<svg version="1.2" xmlns="http://www.w3.org/2000/svg" viewBox="0 0 160 160" width="160" height="160">
	<title>customFilterIcon-svg</title>
	<style>
		.s0 { fill: #000000 } 
	</style>
	<path id="Shape 1" fill-rule="evenodd" class="s0" d="m155 35.6v88.8q0 12.6-9 21.6-9 9-21.6 9h-88.8q-12.6 0-21.6-9-9-9-9-21.6v-88.8q0-12.6 9-21.6 9-9 21.6-9h88.8q12.6 0 21.6 9 9 9 9 21.6zm-30.6-17h-88.8q-7 0-12 5-5 5-5 12v88.8q0 7 5 12 5 5 12 5h88.8q7 0 12-5 5-5 5-12v-88.8q0-7-5-12-5-5-12-5z"/>
	<path id="SB" fill-rule="evenodd" class="s0" d="m70.3 95.1q0 6.2-3 10.7-3 4.6-8.7 7-5.7 2.5-13.8 2.5-3.6 0-7.1-0.5-3.4-0.5-6.6-1.4-3.1-0.9-5.9-2.3v-13.6q4.9 2.2 10.2 3.9 5.3 1.8 10.5 1.8 3.6 0 5.8-1 2.2-0.9 3.2-2.6 1-1.7 1-3.8 0-2.6-1.8-4.4-1.7-1.9-4.8-3.5-3-1.6-6.9-3.5-2.4-1.1-5.2-2.7-2.9-1.7-5.4-4-2.6-2.4-4.2-5.8-1.6-3.4-1.6-8.1 0-6.2 2.8-10.6 2.8-4.4 8.1-6.7 5.3-2.4 12.5-2.4 5.4 0 10.3 1.3 4.9 1.2 10.3 3.6l-4.8 11.4q-4.8-2-8.6-3-3.7-1.1-7.7-1.1-2.7 0-4.7 0.9-1.9 0.9-2.9 2.5-1 1.5-1 3.6 0 2.5 1.4 4.2 1.5 1.6 4.4 3.2 2.9 1.6 7.3 3.7 5.3 2.5 9 5.2 3.8 2.7 5.9 6.4 2 3.7 2 9.1zm12.5 19.2v-69.2h21.6q13.8 0 20.9 3.9 7.1 3.9 7.1 13.6 0 3.9-1.2 7.1-1.3 3.2-3.6 5.2-2.4 2.1-5.8 2.7v0.5q3.4 0.7 6.2 2.4 2.8 1.7 4.5 5 1.7 3.3 1.7 8.8 0 6.3-3.1 10.8-3.1 4.4-8.8 6.9-5.7 2.3-13.6 2.3zm14.7-57.2v15.4h8.6q6.4 0 8.8-2 2.5-2 2.5-5.9 0-4-3-5.7-2.8-1.8-9.1-1.8zm9 27.1h-9v18h9.5q6.7 0 9.3-2.5 2.6-2.6 2.6-6.9 0-2.6-1.2-4.5-1.1-2-3.8-3-2.7-1.1-7.4-1.1z"/>
</svg>